<?xml version="1.0" standalone="no"?>
<!DOCTYPE svg PUBLIC "-//W3C//DTD SVG 20010904//EN"
 "http://www.w3.org/TR/2001/REC-SVG-20010904/DTD/svg10.dtd">
<svg version="1.0" xmlns="http://www.w3.org/2000/svg"
 width="340.000000pt" height="340.000000pt" viewBox="0 0 340.000000 340.000000"
 preserveAspectRatio="xMidYMid meet">

<g transform="translate(0.000000,340.000000) scale(0.100000,-0.100000)"
fill="#000000" stroke="none">
<path d="M1037 3224 c-3 -3 -22 -6 -41 -6 -20 0 -36 -4 -36 -9 0 -5 8 -9 18
-9 27 0 43 -15 36 -34 -4 -12 -10 -14 -19 -6 -7 6 -34 7 -71 2 -50 -6 -59 -10
-56 -26 3 -14 -1 -17 -12 -13 -11 5 -16 0 -16 -14 0 -16 -5 -20 -20 -16 -11 3
-20 1 -20 -4 0 -5 10 -9 23 -10 14 0 5 -6 -22 -14 -25 -8 -48 -12 -52 -10 -4
3 -6 -3 -5 -13 1 -14 -7 -17 -41 -15 -33 1 -41 -1 -36 -13 3 -8 9 -14 14 -14
11 0 12 -31 1 -47 -7 -10 -12 -10 -27 1 -17 12 -17 16 -6 30 12 14 12 16 -3
10 -9 -3 -16 -11 -16 -16 0 -6 -6 -5 -15 2 -10 9 -15 9 -15 1 0 -6 -10 -11
-22 -11 -20 -1 -18 -4 12 -20 21 -11 28 -19 18 -20 -9 0 -20 -4 -23 -10 -4 -6
1 -7 11 -3 14 5 16 2 12 -15 -4 -14 2 -28 21 -44 24 -21 24 -21 7 -1 -21 25
-13 51 10 32 7 -6 11 -15 8 -20 -3 -5 2 -9 10 -9 22 0 38 -34 24 -48 -9 -9 -4
-12 20 -12 18 0 32 -5 32 -11 0 -5 4 -8 10 -4 17 10 50 -18 44 -38 -4 -12 8
-33 38 -66 54 -59 78 -89 100 -122 9 -14 24 -34 33 -43 9 -9 14 -16 10 -16
-15 0 40 -73 108 -140 15 -16 27 -33 27 -40 0 -7 7 -10 17 -6 10 4 14 4 10 0
-8 -8 41 -64 56 -64 5 0 53 27 108 60 54 33 100 60 102 60 2 0 75 43 162 95
87 52 164 95 170 95 7 0 18 7 25 15 10 13 10 19 -3 33 -8 9 -17 24 -19 32 -4
20 -58 54 -83 52 -11 -1 -15 1 -8 4 14 6 6 34 -11 34 -6 0 -43 37 -81 82 -109
129 -254 276 -324 329 -55 42 -65 47 -75 33 -10 -13 -14 -12 -35 10 -14 15
-20 26 -15 27 13 1 -28 17 -47 18 -9 1 -18 -2 -22 -5z m63 -46 c0 -6 -6 -5
-15 2 -8 7 -15 14 -15 16 0 2 7 1 15 -2 8 -4 15 -11 15 -16z m-10 -32 c-6 -6
-18 -5 -32 1 -21 10 -21 10 9 9 19 -1 28 -5 23 -10z m160 -110 c0 -3 -4 -8
-10 -11 -5 -3 -10 -1 -10 4 0 6 5 11 10 11 6 0 10 -2 10 -4z m-9 -79 c-8 -8
-11 -3 -11 19 1 25 2 27 11 11 8 -14 8 -22 0 -30z m-418 -29 c-7 -58 -16 -65
-42 -32 -28 35 -27 48 7 61 41 16 41 16 35 -29z m-119 6 c3 -8 2 -12 -4 -9 -6
3 -10 10 -10 16 0 14 7 11 14 -7z m35 -26 c10 -30 9 -31 -4 -14 -8 11 -15 26
-15 33 0 22 8 14 19 -19z m521 6 c0 -8 -4 -12 -10 -9 -5 3 -10 13 -10 21 0 8
5 12 10 9 6 -3 10 -13 10 -21z m-615 6 c3 -5 1 -10 -4 -10 -6 0 -11 5 -11 10
0 6 2 10 4 10 3 0 8 -4 11 -10z m629 -55 c3 -9 0 -15 -9 -15 -8 0 -15 7 -15
15 0 8 4 15 9 15 5 0 11 -7 15 -15z m-456 -29 c5 -24 -14 -19 -32 9 -16 24
-15 24 6 16 13 -5 24 -16 26 -25z m336 8 c3 -8 2 -12 -4 -9 -6 3 -10 10 -10
16 0 14 7 11 14 -7z m136 -45 c0 -10 -4 -19 -9 -19 -10 0 -21 36 -14 44 10 10
23 -5 23 -25z m-86 5 c3 -8 2 -12 -4 -9 -6 3 -10 10 -10 16 0 14 7 11 14 -7z
m-244 -20 c0 -8 -4 -14 -8 -14 -4 0 -8 9 -8 19 0 11 4 17 8 15 4 -3 8 -12 8
-20z m201 9 c13 -16 12 -17 -3 -4 -10 7 -18 15 -18 17 0 8 8 3 21 -13z m82 -3
c3 -11 1 -18 -4 -14 -5 3 -9 12 -9 20 0 20 7 17 13 -6z m-248 0 c3 -5 1 -10
-4 -10 -6 0 -11 5 -11 10 0 6 2 10 4 10 3 0 8 -4 11 -10z m-75 -20 c0 -5 -2
-10 -4 -10 -3 0 -8 5 -11 10 -3 6 -1 10 4 10 6 0 11 -4 11 -10z m300 -32 c0
-6 -7 -5 -15 2 -8 7 -15 17 -15 22 0 6 7 5 15 -2 8 -7 15 -17 15 -22z m-200 2
c6 -12 7 -20 1 -20 -5 0 -16 -3 -25 -6 -11 -4 -16 0 -16 13 0 37 23 44 40 13z
m291 -8 c6 -16 5 -22 -5 -22 -8 0 -16 11 -19 25 -5 31 13 28 24 -3z m194 18
c3 -5 1 -10 -4 -10 -6 0 -11 5 -11 10 0 6 2 10 4 10 3 0 8 -4 11 -10z m-549
-38 c-4 -3 -12 0 -19 7 -9 9 -9 14 3 21 11 7 16 5 18 -6 2 -9 1 -18 -2 -22z
m211 6 c-3 -8 -6 -5 -6 6 -1 11 2 17 5 13 3 -3 4 -12 1 -19z m58 -28 c-3 -5
-1 -11 5 -15 5 -3 10 -11 10 -18 0 -6 -10 -2 -21 10 -20 20 -19 50 2 37 5 -3
7 -9 4 -14z m-193 -20 c6 -41 0 -44 -27 -12 -16 19 -20 29 -12 34 23 15 35 8
39 -22z m301 -10 c3 -12 0 -20 -8 -20 -13 0 -27 35 -18 44 9 9 20 -2 26 -24z
m-50 -2 c7 -25 3 -33 -12 -23 -13 8 -15 45 -2 45 5 0 11 -10 14 -22z m360 15
c-7 -2 -19 -2 -25 0 -7 3 -2 5 12 5 14 0 19 -2 13 -5z m-573 -56 c0 -24 -3
-28 -10 -17 -13 20 -13 63 0 55 6 -3 10 -21 10 -38z m159 9 l22 -23 -26 0
c-19 0 -25 4 -21 14 3 8 1 11 -4 8 -11 -7 -14 8 -3 18 8 9 6 10 32 -17z m125
-32 c6 -24 2 -43 -8 -33 -11 10 -17 59 -8 59 5 0 13 -12 16 -26z m-94 -20 c0
-2 -9 0 -20 6 -11 6 -20 13 -20 16 0 2 9 0 20 -6 11 -6 20 -13 20 -16z m-152
-9 c17 -38 14 -43 -8 -15 -21 27 -25 40 -12 40 5 0 14 -11 20 -25z m205 5 c3
-12 0 -20 -8 -20 -8 0 -11 8 -8 20 3 11 7 20 8 20 1 0 5 -9 8 -20z m-68 -34
c15 -13 26 -29 24 -35 -2 -6 -17 5 -32 24 -33 41 -31 44 8 11z m-75 -36 c-8
-5 -10 -18 -6 -34 8 -32 0 -33 -31 -4 -30 28 -29 44 2 52 14 4 25 12 25 19 0
6 5 4 11 -7 9 -14 8 -20 -1 -26z m208 11 c4 -28 -13 -20 -21 9 -3 14 -1 20 6
17 7 -2 14 -14 15 -26z m-43 -21 c-3 -5 0 -10 7 -11 7 0 2 -5 -11 -10 -29 -12
-38 -5 -20 15 16 17 34 22 24 6z m65 -37 c0 -10 3 -29 5 -43 5 -22 3 -21 -9 5
-18 36 -20 55 -6 55 6 0 10 -8 10 -17z m-111 -67 l-1 -31 -13 30 c-8 17 -14
39 -14 50 0 20 0 20 14 1 8 -11 15 -34 14 -50z m68 57 c-4 -3 -2 -12 5 -20 8
-10 8 -17 0 -25 -9 -9 -12 -8 -12 5 0 9 -4 17 -10 17 -5 0 -10 -7 -10 -16 0
-8 -4 -12 -10 -9 -16 10 -11 43 8 48 27 7 36 7 29 0z m-247 -47 c0 -3 -4 -8
-10 -11 -5 -3 -10 -1 -10 4 0 6 5 11 10 11 6 0 10 -2 10 -4z"/>
<path d="M685 2676 c-35 -24 -109 -67 -127 -73 -24 -7 -22 -34 7 -121 14 -41
25 -79 25 -85 0 -33 152 -361 180 -391 12 -12 50 5 96 42 27 22 34 34 34 63 0
27 8 45 30 69 32 34 33 55 3 27 -27 -24 -89 -32 -96 -13 -4 9 -13 13 -22 10
-8 -3 -15 -1 -15 5 0 6 5 11 11 11 6 0 3 7 -6 16 -15 15 -14 18 7 32 28 20 40
29 78 65 16 15 35 27 40 27 6 0 8 5 5 10 -3 6 1 10 9 10 9 0 16 5 16 11 0 5 4
8 9 4 6 -3 9 4 8 16 -1 12 -9 24 -19 27 -10 2 -16 8 -13 12 3 4 -3 14 -13 21
-15 12 -16 12 -4 -2 14 -19 4 -31 -41 -48 -22 -9 -27 -8 -27 4 0 8 4 15 8 15
12 0 29 41 28 65 -1 11 -15 34 -31 50 -15 17 -25 24 -21 18 5 -9 0 -13 -13
-13 -25 0 -71 -20 -71 -32 0 -4 -9 -8 -19 -8 -11 0 -23 -9 -26 -20 -5 -16 -12
-19 -28 -14 -12 3 -23 8 -25 9 -7 6 24 46 40 51 22 7 22 22 3 48 -20 26 -19
33 4 41 24 7 36 36 19 47 -17 11 -20 10 -43 -6z"/>
<path d="M434 2630 c-6 -6 -24 -12 -40 -13 -23 -2 -30 -8 -32 -30 -2 -19 1
-27 12 -27 20 0 30 -21 47 -99 10 -47 21 -69 41 -86 16 -13 28 -28 28 -34 0
-5 4 -11 9 -13 4 -1 28 -39 51 -83 24 -44 52 -92 62 -107 20 -30 23 -55 7 -60
-17 -6 18 -69 42 -75 12 -3 19 -14 19 -29 0 -17 6 -24 19 -24 46 0 42 23 -24
152 -92 179 -174 389 -200 511 -6 28 -23 35 -41 17z"/>
<path d="M1810 2566 c0 -2 8 -10 18 -17 15 -13 16 -12 3 4 -13 16 -21 21 -21
13z"/>
<path d="M1825 2499 c-10 -15 3 -25 16 -12 7 7 7 13 1 17 -6 3 -14 1 -17 -5z"/>
<path d="M2037 2369 c7 -7 15 -10 18 -7 3 3 -2 9 -12 12 -14 6 -15 5 -6 -5z"/>
<path d="M433 2360 c2 -8 14 -16 28 -17 19 -1 20 -1 4 4 -11 3 -24 10 -28 17
-6 7 -7 6 -4 -4z"/>
<path d="M1470 2328 c-58 -47 -108 -96 -147 -146 -36 -45 -40 -56 -31 -72 7
-10 15 -17 19 -14 12 7 20 -32 14 -63 -3 -15 9 4 28 42 29 60 69 119 149 219
13 17 14 25 4 38 -11 14 -14 14 -36 -4z"/>
<path d="M2145 2317 c226 -122 354 -397 301 -647 -29 -138 -121 -283 -230
-361 -21 -16 -35 -29 -31 -29 17 0 109 78 152 130 52 63 107 173 122 246 l10
49 -3 -49 c-3 -38 0 -54 16 -70 24 -26 32 -16 48 67 11 56 10 62 -7 74 -10 7
-24 17 -30 23 -10 8 -13 5 -15 -12 0 -13 -4 20 -8 72 -13 164 -73 299 -182
408 -54 54 -169 132 -192 132 -6 0 16 -15 49 -33z"/>
<path d="M1872 2310 c0 -14 2 -19 5 -12 2 6 2 18 0 25 -3 6 -5 1 -5 -13z"/>
<path d="M1332 2261 c-60 -66 -86 -111 -73 -124 6 -6 12 -9 14 -6 7 8 104 154
111 167 16 28 -12 8 -52 -37z"/>
<path d="M1847 2253 c-2 -13 1 -23 7 -23 14 0 48 -59 41 -71 -4 -5 1 -6 9 -3
12 4 13 11 5 31 -7 20 -6 30 8 47 18 21 18 21 -4 3 -21 -18 -22 -18 -33 2 -6
12 -9 25 -6 30 3 4 -1 8 -9 8 -7 0 -15 -11 -18 -24z"/>
<path d="M1664 2232 c-16 -11 -24 -41 -14 -47 6 -4 10 3 10 15 0 24 26 38 42
22 8 -8 6 -22 -7 -52 -10 -22 -15 -43 -12 -46 8 -9 67 16 67 27 0 5 -11 2 -25
-7 -33 -21 -41 -13 -20 20 30 46 0 96 -41 68z"/>
<path d="M2044 2196 c-3 -8 -4 -23 -1 -33 3 -12 5 -9 6 9 1 21 7 28 29 31 l27
4 -28 2 c-16 0 -30 -5 -33 -13z"/>
<path d="M1182 2178 c8 -13 23 -38 32 -56 10 -19 20 -32 22 -29 8 8 -45 107
-57 107 -7 0 -6 -8 3 -22z"/>
<path d="M1597 2176 c-4 -10 -1 -13 7 -10 7 3 21 -10 31 -30 27 -49 31 -37 5
13 -21 43 -34 51 -43 27z"/>
<path d="M2101 2178 c0 -9 -9 -30 -18 -47 -14 -24 -15 -33 -5 -43 9 -9 12 -6
12 18 0 17 5 35 11 41 6 6 9 19 6 29 -4 16 -5 16 -6 2z"/>
<path d="M2110 2110 c-8 -5 -12 -11 -9 -14 3 -3 14 1 25 9 21 16 8 20 -16 5z"/>
<path d="M1410 2081 c0 -5 7 -12 16 -15 14 -5 15 -4 4 9 -14 17 -20 19 -20 6z"/>
<path d="M1520 2059 c-9 -17 -9 -20 5 -17 9 2 23 -9 33 -27 9 -16 18 -32 20
-34 1 -2 4 -2 7 1 5 5 -43 98 -51 98 -2 0 -8 -9 -14 -21z"/>
<path d="M1810 2059 c0 -12 -8 -28 -17 -35 -14 -11 -15 -13 -3 -14 10 0 7 -5
-8 -16 -12 -8 -26 -13 -30 -10 -4 2 -14 1 -21 -4 -10 -6 -9 -9 7 -15 21 -6 51
-80 38 -93 -3 -3 -6 -1 -6 5 0 6 -17 7 -45 3 -36 -6 -48 -4 -55 9 -7 12 -9 8
-10 -16 0 -20 5 -33 13 -33 9 0 9 -2 -1 -9 -17 -10 -18 -33 -3 -105 6 -33 11
-64 11 -69 0 -13 -52 2 -74 21 -18 16 -19 16 -13 -1 10 -27 -1 -39 -25 -26
-12 6 -18 7 -14 1 8 -13 -22 -24 -37 -15 -34 21 -87 6 -87 -24 0 -9 7 -24 16
-34 13 -14 21 -16 41 -8 30 11 38 6 29 -17 -4 -10 -13 -14 -26 -11 -19 5 -28
-7 -12 -16 18 -11 52 13 52 38 0 30 11 32 35 5 10 -11 22 -17 28 -13 6 3 7 1
3 -5 -18 -30 95 -57 134 -32 8 5 11 10 5 10 -5 0 -3 5 5 10 13 9 13 11 0 20
-8 5 -19 11 -25 14 -6 2 -6 8 2 16 13 14 77 4 67 -11 -3 -5 0 -9 5 -9 18 0 12
33 -11 57 l-21 23 21 0 c12 0 22 5 22 10 0 6 -9 10 -20 10 -11 0 -20 5 -20 11
0 5 -4 8 -9 4 -5 -3 -13 0 -17 6 -4 7 -3 9 4 5 7 -4 10 4 10 24 -1 24 -4 28
-15 19 -8 -7 -13 -8 -13 -1 0 5 7 15 15 22 10 9 15 9 15 1 0 -6 9 -11 21 -11
15 0 19 -4 15 -16 -4 -10 -1 -14 6 -11 7 2 14 10 14 18 1 8 3 16 4 19 1 3 3
18 5 35 4 32 28 55 56 55 15 0 15 4 6 25 -7 13 -14 20 -15 15 -5 -14 -22 -2
-22 16 0 8 3 13 8 11 4 -3 7 19 7 48 0 29 -3 51 -7 48 -5 -2 -8 -17 -8 -34 0
-16 -4 -29 -9 -29 -9 0 -21 34 -21 60 0 13 1 13 10 0 7 -11 10 -4 10 28 0 23
-4 42 -10 42 -5 0 -10 -10 -10 -21z m0 -94 c0 -8 -4 -15 -10 -15 -5 0 -7 7 -4
15 4 8 8 15 10 15 2 0 4 -7 4 -15z m6 -70 c6 -23 0 -45 -10 -34 -10 12 -15 59
-6 59 5 0 12 -11 16 -25z m-36 -70 c0 -19 -21 -19 -46 0 -18 14 -17 14 14 15
22 0 32 -5 32 -15z m-106 -196 c17 -13 25 -27 21 -37 -3 -8 2 -23 12 -34 16
-18 16 -19 -10 -9 -47 18 -75 42 -86 72 -9 27 -8 29 13 29 13 0 35 -10 50 -21z
m-176 -20 c3 -17 -23 -33 -39 -23 -5 3 -9 14 -9 25 0 15 6 20 22 17 13 -2 24
-10 26 -19z"/>
<path d="M1861 2054 c0 -11 3 -14 6 -6 3 7 2 16 -1 19 -3 4 -6 -2 -5 -13z"/>
<path d="M2213 2053 c-7 -2 -12 -17 -12 -31 2 -24 2 -24 6 -4 3 14 12 22 25
22 16 0 19 -5 14 -24 -4 -18 -2 -23 12 -22 11 1 17 -6 17 -19 0 -16 -6 -20
-29 -18 -26 2 -28 1 -15 -13 18 -17 45 -10 60 17 7 14 5 23 -11 39 -11 11 -18
20 -15 20 3 0 1 9 -5 20 -11 20 -23 23 -47 13z"/>
<path d="M1450 2041 c0 -5 -3 -17 -6 -25 -5 -12 -2 -15 10 -10 11 4 20 -4 33
-30 9 -20 20 -36 25 -36 13 0 10 9 -19 61 -26 46 -43 61 -43 40z"/>
<path d="M1387 2029 c7 -7 15 -10 18 -7 3 3 -2 9 -12 12 -14 6 -15 5 -6 -5z"/>
<path d="M2030 1991 c10 -7 11 -11 3 -11 -7 0 -13 -11 -13 -25 0 -14 -5 -24
-12 -22 -7 1 -12 -2 -13 -8 0 -5 -4 -17 -10 -25 -5 -9 4 -6 26 7 27 18 34 29
34 54 0 20 -6 34 -15 36 -13 4 -13 3 0 -6z"/>
<path d="M1886 1885 c-3 -8 -1 -15 4 -15 13 0 22 18 11 24 -5 3 -11 -1 -15 -9z"/>
<path d="M1460 1871 c-16 -30 -12 -47 16 -80 29 -35 45 -38 68 -15 22 21 20
50 -5 85 -24 34 -63 39 -79 10z m64 -23 c21 -29 20 -57 -1 -65 -21 -8 -53 30
-53 63 0 31 33 32 54 2z"/>
<path d="M1988 1845 c-44 -29 -68 -51 -68 -63 0 -34 -63 -73 -74 -46 -5 12 -9
11 -26 -3 -12 -10 -26 -27 -32 -38 -10 -17 -9 -18 3 -8 8 6 29 11 46 11 36 -1
129 -48 126 -63 -4 -19 -46 -17 -74 4 -41 30 -36 17 7 -21 26 -23 35 -37 31
-55 -4 -20 -1 -23 25 -21 47 4 50 11 61 145 1 12 5 25 10 29 4 4 7 19 7 33 0
14 9 40 20 56 19 29 28 85 13 85 -5 -1 -38 -21 -75 -45z"/>
<path d="M1076 1864 c-18 -17 -10 -31 31 -52 33 -18 43 -14 43 16 0 49 -42 69
-74 36z"/>
<path d="M746 1845 c4 -8 8 -15 10 -15 2 0 4 7 4 15 0 8 -4 15 -10 15 -5 0 -7
-7 -4 -15z"/>
<path d="M1403 1844 c3 -4 2 -15 -4 -25 -7 -15 -6 -19 5 -19 8 0 24 -16 35
-36 12 -20 25 -34 28 -30 8 8 -48 116 -61 116 -5 0 -6 -3 -3 -6z"/>
<path d="M2267 1826 c-9 -24 -9 -96 1 -96 4 0 14 4 22 10 9 5 19 5 27 -2 21
-17 16 28 -4 50 -10 10 -23 27 -29 37 -10 18 -11 18 -17 1z m27 -42 c7 -18 0
-34 -15 -34 -5 0 -9 11 -9 25 0 28 15 34 24 9z"/>
<path d="M1338 1813 c6 -2 18 -2 25 0 6 3 1 5 -13 5 -14 0 -19 -2 -12 -5z"/>
<path d="M1348 1703 c7 -3 16 -2 19 1 4 3 -2 6 -13 5 -11 0 -14 -3 -6 -6z"/>
<path d="M2032 1673 c14 -54 25 -61 19 -12 -3 24 -11 44 -18 46 -9 3 -9 -5 -1
-34z"/>
<path d="M860 1643 c0 -12 9 -27 21 -33 18 -10 19 -10 10 7 -26 45 -31 49 -31
26z"/>
<path d="M2186 1617 c-14 -10 -15 -17 -6 -41 10 -28 11 -28 31 -10 18 16 21
16 36 2 23 -24 9 -52 -22 -46 -27 6 -34 -6 -10 -16 25 -9 56 16 53 43 -4 33
-32 50 -58 33 -17 -10 -20 -10 -20 4 0 9 8 23 18 30 22 17 2 18 -22 1z"/>
<path d="M1840 1580 c0 -5 -16 -25 -35 -44 l-35 -35 51 -27 50 -28 -28 -24
c-26 -22 -21 -23 23 -5 13 5 15 2 10 -15 -8 -23 2 -92 13 -92 4 0 5 32 3 70
-4 59 -2 70 12 70 37 0 4 57 -40 69 -35 9 -46 34 -13 30 34 -5 53 9 38 27 -13
16 -49 19 -49 4z"/>
<path d="M1405 1550 c-3 -6 1 -7 9 -4 18 7 21 14 7 14 -6 0 -13 -4 -16 -10z"/>
<path d="M2500 1499 c0 -4 9 -26 20 -50 11 -24 19 -37 19 -29 0 15 -38 91 -39
79z"/>
<path d="M1613 1483 c-15 -5 -18 -53 -4 -53 5 0 11 -12 13 -27 2 -22 9 -29 29
-31 28 -3 55 20 45 40 -32 66 -54 84 -83 71z m34 -19 c8 -21 -13 -42 -28 -27
-13 13 -5 43 11 43 6 0 13 -7 17 -16z m36 -48 c6 -15 -11 -36 -29 -36 -14 0
-27 28 -18 41 8 14 41 11 47 -5z"/>
<path d="M2032 1468 c-23 -23 -5 -93 28 -103 39 -12 68 21 50 56 -11 20 -45
26 -55 9 -11 -18 -26 -10 -23 13 2 16 9 22 26 21 12 0 22 3 22 8 0 12 -34 10
-48 -4z m63 -69 c0 -15 -7 -25 -18 -27 -22 -4 -33 24 -17 43 18 21 35 13 35
-16z"/>
<path d="M2540 1391 c0 -6 4 -13 10 -16 6 -3 7 1 4 9 -7 18 -14 21 -14 7z"/>
<path d="M1437 1363 c-12 -11 -8 -23 8 -23 8 0 15 7 15 15 0 16 -12 20 -23 8z"/>
<path d="M2470 1307 c-19 -13 -64 -41 -100 -62 -36 -21 -67 -40 -69 -41 -2 -2
9 -18 23 -35 28 -33 96 -160 96 -179 0 -30 -25 0 -64 78 -73 144 -52 139 -212
43 -183 -110 -216 -137 -209 -165 14 -48 28 -75 36 -70 5 3 5 13 -1 24 -5 10
-10 25 -10 32 1 16 25 -37 51 -111 11 -30 27 -63 36 -73 10 -11 11 -18 5 -18
-7 0 -12 -5 -12 -11 0 -5 4 -8 10 -4 11 7 40 -47 87 -160 32 -76 45 -129 24
-95 -6 8 -7 18 -5 22 3 4 0 8 -5 8 -14 0 -14 -11 0 -47 8 -22 12 -24 20 -13 6
11 7 6 3 -15 -3 -16 0 -41 6 -55 9 -22 10 -20 5 15 l-5 40 14 -30 c7 -16 12
-38 10 -48 -1 -9 2 -17 7 -17 6 0 7 -4 4 -10 -3 -5 -1 -10 5 -10 6 0 8 12 5
29 -3 16 -1 40 4 53 l10 23 1 -22 c4 -47 4 -59 -4 -80 -4 -13 -14 -23 -22 -23
-10 0 -14 -12 -14 -40 0 -36 2 -40 25 -40 17 0 28 -7 33 -21 8 -20 9 -20 25
-5 24 24 31 82 18 139 -9 39 -9 52 1 58 20 12 25 3 39 -68 11 -58 14 -64 19
-38 3 17 2 33 -3 36 -10 7 71 117 86 118 15 2 6 -34 -15 -58 l-23 -26 23 19
c25 22 42 14 25 -12 -9 -15 -7 -18 16 -17 14 1 35 5 46 9 21 9 134 123 136
138 1 4 3 13 4 18 1 6 3 18 4 28 2 13 5 11 12 -7 5 -14 7 -38 3 -55 -6 -26 -4
-29 8 -19 9 8 13 28 11 59 -2 39 2 53 21 74 31 32 33 43 17 110 -18 75 -20 76
-46 44 l-23 -29 -7 27 c-8 29 -5 38 21 78 15 23 15 24 0 5 -14 -17 -18 -18
-26 -5 -6 8 -7 22 -4 30 28 68 28 69 11 105 -9 20 -17 44 -17 55 0 10 -4 22
-10 25 -5 3 -10 2 -10 -2 0 -5 -7 -18 -16 -29 -16 -20 -16 -14 3 34 6 15 5 16
-12 2 -16 -13 -18 -13 -13 0 2 8 11 16 19 16 8 1 20 2 27 3 8 1 5 8 -7 20 -12
12 -17 28 -14 43 5 26 -63 198 -79 198 -4 0 -8 7 -8 15 0 20 -9 19 -50 -8z
m97 -459 c-3 -8 -6 -5 -6 6 -1 11 2 17 5 13 3 -3 4 -12 1 -19z m-56 -15 c-12
-20 -14 -14 -5 12 4 9 9 14 11 11 3 -2 0 -13 -6 -23z m119 -39 c0 -8 -4 -12
-10 -9 -5 3 -10 13 -10 21 0 8 5 12 10 9 6 -3 10 -13 10 -21z m-190 -111 c-34
-65 -72 -131 -83 -148 -29 -43 -79 -95 -91 -95 -6 0 0 7 12 16 30 21 110 144
170 261 26 50 48 90 50 88 3 -2 -24 -57 -58 -122z m78 35 c-77 -163 -199 -338
-235 -338 -7 0 7 18 30 39 41 38 173 248 212 339 10 23 20 40 23 37 2 -2 -11
-37 -30 -77z m116 -7 c18 -57 21 -85 6 -76 -5 3 -10 17 -10 30 0 13 -4 27 -10
30 -9 6 -15 65 -6 65 2 0 11 -22 20 -49z m-5 -108 c2 -38 -16 -26 -29 21 -15
56 -2 85 16 35 7 -18 13 -44 13 -56z m81 67 c-6 -11 -16 -20 -22 -20 -6 0 -3
9 7 20 10 11 20 20 22 20 2 0 -1 -9 -7 -20z m-180 -224 c0 -11 -10 -31 -22
-45 -22 -24 -21 -24 11 2 47 39 50 26 7 -25 -37 -43 -49 -47 -51 -18 -1 8 -5
32 -9 52 -5 30 -2 44 16 72 l23 36 12 -28 c7 -15 12 -36 13 -46z m91 57 c-6
-10 -20 -29 -32 -43 l-21 -25 16 25 c9 14 19 33 23 43 3 9 9 17 15 17 5 0 4
-8 -1 -17z m-331 -89 c0 -2 -12 -4 -26 -4 -14 0 -23 4 -20 9 6 8 46 4 46 -5z"/>
<path d="M1851 1264 c0 -11 3 -14 6 -6 3 7 2 16 -1 19 -3 4 -6 -2 -5 -13z"/>
<path d="M2140 1265 c-14 -8 -20 -14 -14 -15 5 0 19 7 30 15 24 18 16 19 -16
0z"/>
<path d="M1618 1098 c6 -25 20 -32 37 -18 19 15 12 26 -18 32 -20 4 -23 1 -19
-14z"/>
<path d="M1780 870 c0 -23 26 -38 41 -23 14 14 0 43 -22 43 -12 0 -19 -7 -19
-20z"/>
<path d="M2190 119 c0 -5 5 -7 10 -4 6 3 10 8 10 11 0 2 -4 4 -10 4 -5 0 -10
-5 -10 -11z"/>
</g>
</svg>
