<?xml version="1.0" standalone="no"?>
<!DOCTYPE svg PUBLIC "-//W3C//DTD SVG 20010904//EN"
 "http://www.w3.org/TR/2001/REC-SVG-20010904/DTD/svg10.dtd">
<svg version="1.0" xmlns="http://www.w3.org/2000/svg"
 width="640.000000pt" height="640.000000pt" viewBox="0 0 640.000000 640.000000"
 preserveAspectRatio="xMidYMid meet">
<metadata>
Created by potrace 1.16, written by Peter Selinger 2001-2019
</metadata>
<g transform="translate(0.000000,640.000000) scale(0.100000,-0.100000)"
fill="#000000" stroke="none">
<path d="M602 6237 l-32 -33 0 -126 0 -126 35 -31 36 -31 230 0 231 0 34 34
34 34 0 125 0 125 -35 31 -36 31 -232 0 -233 0 -32 -33z m522 -28 c24 -28 26
-38 26 -129 0 -91 -2 -101 -26 -129 l-26 -31 -226 0 -227 0 -28 25 c-26 25
-27 29 -27 137 0 167 -15 158 276 158 l232 0 26 -31z"/>
<path d="M647 6192 c-24 -26 -24 -203 -1 -226 13 -14 48 -16 223 -16 254 0
241 -7 241 132 0 134 12 128 -242 128 -186 0 -206 -2 -221 -18z m96 -57 c16
-25 33 -45 37 -45 4 0 21 20 37 45 16 25 36 45 46 45 15 0 17 -11 17 -100 0
-81 -3 -100 -15 -100 -11 0 -15 16 -17 68 l-3 67 -23 -37 c-30 -47 -53 -48
-78 -3 -10 19 -22 35 -26 35 -5 0 -8 -29 -8 -65 0 -51 -3 -65 -15 -65 -12 0
-15 18 -15 100 0 89 2 100 18 100 9 0 29 -20 45 -45z"/>
<path d="M2663 6252 c-17 -2 -25 -13 -32 -40 -18 -77 -51 -238 -55 -272 -21
-186 -56 -572 -56 -617 0 -23 2 -23 134 -23 132 0 134 0 166 -29 29 -25 34
-36 39 -92 l6 -64 165 -5 165 -6 -168 -2 c-141 -2 -169 -4 -174 -17 -7 -19 5
-34 15 -18 5 7 87 12 253 14 l246 4 12 40 c7 23 22 54 35 70 22 28 24 28 137
29 l114 1 7 -48 c10 -70 18 -70 18 0 0 70 4 73 85 73 59 0 64 -4 89 -73 24
-64 31 -53 11 15 -26 93 -16 88 -220 93 -188 4 -248 -3 -260 -33 -4 -9 -16
-48 -25 -87 l-18 -70 -1 68 c-1 62 1 70 27 94 47 45 85 54 201 52 59 -1 112 0
118 4 11 7 9 54 -12 277 -26 262 -36 341 -60 455 -13 61 -27 127 -31 147 -3
21 -12 42 -19 48 -10 8 -149 12 -452 13 -241 1 -448 1 -460 -1z m699 -356 c4
-6 8 -20 8 -31 0 -19 -7 -20 -255 -20 l-255 0 0 31 0 30 248 0 c162 0 250 -4
254 -10z m-534 -64 c7 -5 15 -25 19 -45 l6 -37 -109 0 c-139 0 -154 4 -154 40
0 22 6 31 28 38 33 13 192 15 210 4z m780 -8 c23 -7 41 -49 26 -64 -5 -4 -64
-10 -131 -13 l-123 -5 0 37 c0 21 3 41 7 44 8 9 190 9 221 1z m-243 -236 c0
-16 -3 -28 -7 -28 -5 0 -118 0 -253 0 l-245 0 0 30 0 30 253 -2 252 -3 0 -27z
m-534 -48 c5 -4 9 -29 7 -55 l-3 -49 -125 3 c-68 1 -128 5 -132 7 -12 8 -9 72
4 80 34 21 220 31 249 14z m582 -3 c8 13 218 5 234 -9 14 -11 18 -74 6 -81 -5
-3 -65 -8 -135 -11 -142 -6 -136 -10 -129 72 2 26 6 39 11 32 4 -7 10 -8 13
-3z m-53 -125 c0 -22 -8 -41 -25 -57 -24 -25 -26 -25 -215 -25 -156 0 -195 3
-215 16 -21 14 -45 60 -45 88 0 8 75 11 250 11 l250 0 0 -33z"/>
<path d="M985 5776 c-29 -21 -27 -92 4 -117 30 -25 76 -24 101 1 26 26 27 90
2 113 -23 21 -81 22 -107 3z"/>
<path d="M2430 5282 c-49 -5 -57 -15 -81 -94 -27 -91 -18 -98 12 -11 l24 68
49 3 c86 6 96 0 97 -61 1 -56 4 -54 14 6 l6 37 67 0 c37 0 91 -3 120 -7 58 -6
72 -19 99 -91 l14 -37 -7 60 c-6 61 -24 108 -46 122 -13 7 -299 11 -368 5z"/>
<path d="M2975 4803 c-265 -24 -555 -158 -754 -348 -160 -154 -275 -328 -345
-523 -53 -150 -82 -365 -68 -502 7 -64 7 -65 66 -112 62 -50 183 -117 250
-138 31 -10 40 -10 46 0 6 10 23 9 80 -4 40 -9 104 -16 143 -16 78 0 82 -6 16
-20 -36 -7 -29 -8 36 -4 156 11 292 49 396 113 70 44 61 28 -11 -18 -120 -78
-270 -126 -408 -133 -35 -1 -66 -6 -69 -11 -3 -5 35 -5 84 -1 98 7 108 -1 17
-16 l-59 -9 60 4 c97 7 212 42 308 93 83 44 95 54 144 125 l53 76 -35 -14
c-19 -8 -44 -15 -55 -15 -11 0 -20 -4 -20 -9 0 -5 -6 -8 -12 -8 -25 3 -98 -15
-98 -23 0 -5 -9 -7 -20 -5 -11 2 -18 0 -15 -5 19 -30 -253 -53 -352 -30 -41
10 -56 11 -65 2 -9 -9 -9 -12 3 -12 11 0 12 -2 1 -9 -40 -25 243 -31 353 -7
75 16 99 24 171 56 25 12 48 20 50 17 2 -2 -32 -21 -77 -42 -215 -101 -436
-111 -651 -31 -98 37 -198 94 -198 113 0 7 -3 12 -7 11 -5 -2 -32 7 -61 20
l-52 23 0 95 c0 81 2 95 15 90 79 -30 238 -79 315 -97 79 -19 124 -23 270 -23
193 0 243 8 442 71 126 39 148 37 148 -12 0 -30 10 -55 21 -55 5 0 4 12 -2 26
-5 15 -7 34 -4 44 4 13 -36 45 -174 140 -99 68 -178 127 -175 132 3 5 2 8 -3
7 -22 -4 -34 2 -27 14 4 6 4 9 -1 5 -11 -10 -47 11 -40 22 3 6 0 7 -8 4 -13
-4 -67 53 -67 72 0 24 85 -24 266 -152 115 -81 220 -155 234 -164 24 -17 27
-17 79 3 45 17 61 31 99 84 25 35 49 63 53 63 3 0 12 -6 18 -14 9 -10 -2 -30
-50 -90 -33 -43 -59 -80 -56 -82 2 -3 17 12 33 33 42 56 91 101 264 242 381
312 460 370 460 339 -1 -26 -59 -79 -285 -263 -126 -103 -237 -195 -247 -206
-9 -10 -20 -19 -25 -19 -13 -1 -78 -60 -65 -60 6 0 32 16 57 35 128 97 443
110 757 30 75 -19 165 -46 201 -60 64 -26 64 -26 71 -72 3 -25 6 -70 6 -99 l0
-54 -52 21 c-99 38 -263 87 -318 94 -30 4 -82 13 -115 21 -72 16 -75 17 -75 5
0 -5 22 -12 49 -16 69 -9 161 -66 251 -155 84 -82 162 -191 118 -164 -8 5 -9
1 -4 -12 9 -23 4 -17 -53 59 -70 93 -179 179 -316 250 -65 34 -76 37 -165 38
-52 1 -104 -1 -115 -4 -11 -3 -30 -6 -42 -6 -42 -2 -23 -16 35 -27 70 -14 164
-51 240 -95 73 -43 218 -188 260 -259 l33 -55 -30 35 c-17 19 -31 38 -31 43 0
4 -6 7 -12 7 -7 0 -42 30 -78 66 -114 117 -248 199 -390 240 -41 12 -74 25
-72 28 5 14 1 20 -6 8 -5 -7 -25 -13 -45 -14 -21 -1 -36 -3 -34 -5 2 -1 39
-12 83 -23 173 -43 356 -162 455 -296 43 -59 54 -88 13 -36 -14 17 -33 32 -41
32 -9 0 -14 3 -10 6 14 14 -167 158 -275 218 -60 33 -220 86 -261 86 -43 0
-31 -8 48 -30 99 -28 241 -101 313 -161 65 -53 156 -159 145 -169 -3 -3 -8 1
-10 8 -3 6 -11 12 -18 12 -8 0 -17 5 -21 12 -5 7 -3 8 7 3 22 -13 -87 85 -158
141 -78 62 -203 125 -302 153 -91 25 -78 5 19 -28 125 -44 245 -124 339 -226
67 -74 89 -113 38 -68 -20 17 -60 56 -89 86 -62 64 -143 124 -213 160 -75 39
-196 86 -188 74 4 -6 -2 -8 -15 -5 -14 4 -20 2 -15 -5 4 -7 0 -8 -11 -4 -11 5
-15 3 -10 -5 5 -7 0 -9 -14 -6 -12 4 -20 3 -17 -2 3 -4 -3 -10 -13 -13 -9 -2
-26 -8 -36 -13 -17 -7 -17 -5 2 14 31 31 28 46 -3 18 -27 -25 -65 -40 -65 -25
0 4 -8 5 -17 2 -16 -6 -16 -5 -4 10 7 9 16 15 20 13 4 -3 13 -1 21 5 11 6 9 9
-11 9 -25 0 -48 -22 -99 -96 -18 -26 -199 -267 -230 -306 -21 -28 -15 -39 8
-16 7 7 12 8 12 2 0 -6 -20 -25 -45 -43 -24 -17 -52 -45 -62 -61 -9 -17 -21
-30 -25 -30 -4 0 -8 -5 -8 -11 0 -6 20 1 44 15 55 32 69 34 30 4 -16 -13 -36
-29 -44 -37 -8 -7 -26 -19 -41 -25 -15 -6 -45 -35 -68 -63 l-41 -52 33 19 c17
10 50 26 72 35 l40 17 -35 -31 c-35 -31 -94 -63 -110 -58 -4 1 -21 -15 -38
-35 -16 -21 -32 -35 -36 -31 -3 3 -6 1 -6 -5 0 -15 -8 -16 75 8 l70 20 -29
-26 c-46 -43 -156 -76 -273 -82 -57 -3 -103 -9 -103 -13 0 -5 11 -16 25 -25
21 -14 40 -16 103 -10 42 3 91 11 107 16 25 8 22 8 -17 4 -61 -8 -65 11 -5 26
23 6 57 15 75 20 19 5 41 6 49 3 9 -4 14 -2 11 3 -4 5 8 10 25 11 l32 3 -29
-15 c-16 -8 -47 -22 -70 -30 -37 -12 -38 -14 -13 -15 19 0 26 -4 21 -12 -4 -7
-3 -8 5 -4 6 4 8 12 5 18 -5 8 -1 9 10 5 9 -4 15 -3 12 2 -3 5 18 18 47 30 29
12 80 38 112 57 l60 36 -49 -47 c-28 -25 -70 -57 -95 -70 -64 -32 -201 -74
-268 -82 l-56 -6 29 -23 c23 -19 36 -22 69 -17 105 15 289 89 375 150 l35 25
-30 -27 c-114 -101 -143 -119 -267 -159 l-99 -33 33 -17 c33 -18 36 -18 107 4
40 12 106 39 147 60 78 42 98 46 39 10 -19 -12 -32 -27 -29 -32 4 -7 2 -8 -4
-4 -7 4 -12 3 -12 -3 0 -6 -7 -8 -15 -4 -10 3 -15 1 -13 -7 2 -7 -27 -24 -66
-40 l-69 -28 33 -17 c32 -17 36 -17 84 1 28 10 74 30 101 46 38 22 44 23 25 7
-14 -12 -24 -25 -23 -30 2 -5 -5 -5 -14 -2 -12 5 -14 3 -8 -7 5 -8 4 -11 -3
-7 -14 9 -43 -3 -36 -14 3 -5 -5 -13 -18 -18 -22 -9 -21 -10 16 -26 37 -16 42
-16 75 -1 25 11 30 12 19 3 -10 -8 -18 -17 -18 -20 0 -5 85 -26 110 -26 8 0
33 -4 55 -10 60 -16 290 -13 391 4 265 46 496 163 685 347 126 122 191 208
267 353 193 372 180 845 -35 1220 -69 121 -132 202 -235 301 -277 267 -640
393 -1033 357z m830 -1284 c100 -41 180 -95 258 -171 64 -63 145 -173 134
-184 -3 -3 -8 4 -12 17 -6 17 -9 19 -17 8 -8 -11 -9 -10 -4 3 6 20 -10 34 -18
16 -3 -7 -3 -2 0 11 4 15 2 21 -4 17 -6 -4 -30 14 -53 39 -96 104 -243 201
-370 246 l-84 29 48 0 c32 0 74 -11 122 -31z"/>
<path d="M3520 4797 c0 -2 28 -15 63 -27 348 -126 655 -431 787 -783 66 -177
85 -285 85 -492 0 -136 2 -165 8 -120 13 90 0 327 -22 425 -43 191 -130 380
-243 531 -38 52 -62 86 -51 76 11 -9 23 -14 27 -10 4 5 6 2 4 -6 -2 -8 6 -14
19 -16 17 -1 20 1 12 11 -8 10 -5 11 13 7 13 -3 30 -11 38 -17 21 -16 -25 47
-82 112 -64 73 -144 142 -238 203 -75 49 -100 59 -100 38 0 -5 4 -8 8 -5 4 2
14 0 22 -5 13 -9 13 -10 0 -6 -8 2 -21 -3 -28 -12 -8 -9 -11 -11 -9 -6 3 6 -5
10 -18 10 -22 0 -22 -1 8 -27 26 -23 19 -20 -38 12 -80 46 -265 121 -265 107z"/>
<path d="M2365 4737 c-104 -57 -177 -113 -260 -199 -94 -98 -134 -144 -119
-135 7 4 17 0 24 -8 8 -10 18 -11 36 -5 13 5 24 7 24 4 0 -3 42 34 94 83 78
74 148 129 282 221 11 7 14 10 8 8 -14 -7 -39 38 -30 53 10 15 9 15 -59 -22z"/>
<path d="M1824 3274 c4 -21 15 -44 24 -51 46 -35 137 -86 196 -108 85 -32 110
-32 33 -1 -67 28 -72 32 -58 41 6 3 11 2 11 -4 0 -6 7 -7 17 -4 12 5 14 3 8
-7 -6 -10 -4 -12 8 -7 10 3 17 2 17 -4 0 -6 4 -8 9 -5 5 3 30 -1 57 -9 66 -19
184 -34 190 -23 3 4 -15 8 -39 8 -113 0 -318 81 -423 166 l-57 46 7 -38z"/>
<path d="M2755 3135 c-99 -62 -236 -105 -352 -112 -51 -3 -90 -9 -88 -14 3 -4
20 -6 38 -4 17 2 64 6 102 9 69 5 70 5 30 -9 -71 -24 -3 -17 89 10 144 42 206
80 250 153 9 16 12 17 -69 -33z"/>
<path d="M1927 2878 c26 -51 76 -131 112 -178 35 -47 54 -76 42 -65 -19 16
-24 17 -31 5 -6 -8 -10 -21 -10 -29 0 -8 -6 -11 -16 -7 -14 5 -15 4 -4 -9 26
-31 -4 -14 -38 23 l-35 37 23 -34 c61 -89 204 -219 352 -319 48 -33 59 -38 57
-24 -4 24 4 41 21 47 16 5 18 10 10 25 -9 17 -8 19 7 13 10 -4 28 -13 41 -21
12 -8 25 -13 27 -10 2 2 -22 19 -53 38 -206 121 -409 335 -511 538 -17 34 -34
62 -37 62 -3 0 17 -42 43 -92z"/>
<path d="M2595 2913 c-164 -68 -361 -83 -525 -39 -47 12 -94 27 -105 31 -19 8
-18 7 2 -25 13 -21 36 -39 58 -47 42 -14 151 -28 121 -15 -35 15 -3 20 157 23
87 2 161 7 163 11 3 4 15 8 27 7 17 0 13 -5 -18 -20 -56 -26 -28 -23 63 7 63
20 81 31 100 60 12 18 21 34 20 33 -2 0 -30 -12 -63 -26z"/>
<path d="M2532 2804 c-75 -31 -192 -47 -316 -41 -67 2 -134 10 -150 16 -37 15
-42 9 -21 -22 22 -34 32 -37 139 -42 58 -2 76 -1 51 4 -39 7 -39 8 -15 18 35
14 230 26 230 13 0 -5 -5 -10 -12 -10 -6 0 -9 -2 -6 -5 3 -3 26 -1 51 5 30 8
52 22 67 42 12 16 20 31 18 33 -1 2 -18 -3 -36 -11z"/>
<path d="M4104 2599 c-49 -50 -137 -127 -196 -172 -101 -75 -135 -116 -89
-104 13 3 22 -3 30 -19 9 -21 6 -26 -47 -59 -31 -19 -52 -35 -46 -35 14 0 112
60 190 116 106 75 370 346 299 307 -14 -8 -22 -7 -33 3 -7 8 -18 11 -24 8 -6
-4 -5 3 2 16 23 42 3 28 -86 -61z"/>
<path d="M2857 1924 c-4 -4 -2 -13 4 -21 6 -7 7 -13 2 -13 -5 0 -19 -22 -32
-49 -12 -27 -28 -54 -35 -60 -7 -6 -63 -14 -124 -18 l-111 -6 -5 24 c-3 13 -7
42 -9 64 -2 25 -4 15 -5 -26 -2 -51 -6 -68 -18 -73 -28 -11 -121 -6 -132 7 -5
6 -18 38 -27 70 -23 79 -30 66 -9 -16 26 -104 11 -98 236 -97 108 0 203 2 211
6 18 7 25 21 42 89 l13 50 1 -41 c1 -58 -10 -106 -23 -101 -7 3 -20 -1 -31 -9
-14 -10 -54 -14 -152 -14 l-133 0 5 -127 c4 -71 10 -186 16 -257 5 -72 9 -175
9 -230 0 -56 5 -153 10 -216 6 -63 13 -147 15 -186 3 -40 12 -121 20 -180 8
-60 20 -154 26 -209 17 -149 11 -142 123 -150 52 -4 99 -4 105 0 6 3 167 6
356 6 332 -1 346 0 365 19 11 11 20 30 21 43 0 32 8 93 30 248 23 164 35 301
49 554 6 105 15 245 20 313 6 68 10 180 10 249 l0 126 -80 -7 c-114 -10 -183
0 -219 33 -23 21 -31 40 -39 96 -8 45 -8 71 -2 73 6 2 10 10 10 18 0 10 -5 12
-12 7 -18 -11 -482 -3 -489 8 -3 5 -8 6 -12 3z m433 -205 c44 -7 80 -103 80
-211 l0 -35 -252 4 -253 4 2 59 c1 33 7 77 13 98 14 43 49 85 65 78 7 -2 18 0
26 5 12 8 271 6 319 -2z m348 -204 c31 -7 44 -48 36 -114 -5 -38 -14 -62 -30
-78 -22 -22 -29 -23 -106 -18 -97 7 -139 12 -143 17 -7 8 -14 174 -7 184 4 6
13 13 19 15 16 5 202 0 231 -6z m-799 -117 c0 -67 -3 -96 -9 -83 -5 11 -9 14
-9 8 -1 -10 -28 -12 -105 -10 -85 2 -108 6 -125 21 -24 22 -36 91 -22 128 11
29 10 29 214 36 l57 2 -1 -102z m529 -145 c-3 -42 -6 -47 -33 -55 -16 -5 -130
-8 -252 -7 l-223 2 0 53 0 54 256 0 255 0 -3 -47z m255 -284 c23 -13 22 -70
-2 -100 -18 -22 -27 -24 -130 -26 l-111 -1 0 72 0 71 113 -3 c61 -3 120 -8
130 -13z m-777 -57 c-4 -36 -12 -70 -19 -74 -19 -13 -169 -7 -204 7 -36 15
-50 56 -34 98 10 25 13 26 98 29 48 2 105 4 127 5 l39 2 -7 -67z m524 -129 c0
-21 -4 -43 -8 -50 -6 -9 -75 -13 -255 -15 l-247 -3 0 53 0 52 255 0 255 0 0
-37z"/>
<path d="M3363 1867 c2 -7 10 -38 17 -70 8 -39 18 -62 33 -72 22 -13 120 -18
345 -16 l83 1 13 33 c8 17 17 48 20 67 l6 35 -17 -40 c-28 -63 -30 -65 -88
-65 -81 0 -85 4 -85 68 0 63 -11 63 -19 -1 l-6 -42 -50 -3 c-27 -1 -81 1 -120
5 l-70 8 -25 52 c-14 29 -29 52 -34 53 -4 0 -6 -6 -3 -13z"/>
</g>
</svg>
