<?xml version="1.0" standalone="no"?>
<!DOCTYPE svg PUBLIC "-//W3C//DTD SVG 20010904//EN"
 "http://www.w3.org/TR/2001/REC-SVG-20010904/DTD/svg10.dtd">
<svg version="1.0" xmlns="http://www.w3.org/2000/svg"
 width="600.000000pt" height="600.000000pt" viewBox="0 0 600.000000 600.000000"
 preserveAspectRatio="xMidYMid meet">
<metadata>
Created by potrace 1.16, written by Peter Selinger 2001-2019
</metadata>
<g transform="translate(0.000000,600.000000) scale(0.100000,-0.100000)"
fill="#000000" stroke="none">
<path d="M2132 5505 c-20 -17 -28 -32 -25 -44 4 -16 -4 -19 -69 -27 l-73 -8
78 -6 c73 -6 96 -16 97 -42 0 -4 -62 -6 -137 -5 -94 1 -154 -2 -188 -12 -27
-8 -52 -16 -54 -18 -2 -1 11 -25 30 -53 34 -50 34 -50 89 -50 30 0 92 -9 138
-20 46 -11 114 -20 151 -20 55 0 71 -4 86 -20 17 -19 17 -20 -1 -21 -65 -5
-154 4 -226 21 -96 23 -178 26 -178 8 0 -9 20 -14 63 -15 34 0 100 -11 147
-22 47 -12 124 -24 173 -28 90 -6 133 -26 84 -38 -33 -9 -197 11 -302 36 -48
11 -105 19 -125 18 -48 -4 -58 5 -105 91 -45 82 -62 100 -71 76 -4 -9 8 -32
29 -58 20 -24 45 -65 56 -91 35 -81 62 -112 101 -116 19 -1 61 -11 95 -21 103
-31 115 -32 328 -35 195 -3 297 -15 322 -38 6 -5 -109 -7 -280 -5 -263 4 -296
6 -355 26 -92 30 -150 38 -160 22 -9 -15 -40 40 -60 106 -15 49 -105 174 -126
174 -20 0 -18 -20 5 -44 42 -47 112 -161 122 -200 22 -81 51 -136 73 -136 12
0 61 -11 111 -25 l90 -25 645 0 c383 0 677 4 725 10 99 13 145 6 145 -22 0
-16 -5 -19 -25 -14 -13 3 -64 2 -112 -4 -52 -6 -358 -10 -738 -10 -614 0 -655
1 -721 20 -39 10 -92 21 -119 23 -56 5 -70 23 -81 101 -5 37 -23 73 -74 150
-74 111 -104 144 -115 126 -4 -7 7 -31 23 -53 17 -23 60 -87 96 -142 53 -82
67 -112 75 -164 11 -70 18 -83 31 -61 11 18 58 15 160 -11 71 -19 112 -20 755
-19 374 0 709 5 745 10 36 5 75 7 87 3 17 -4 23 -1 23 11 0 51 47 130 155 260
63 77 115 143 115 147 0 5 -6 9 -14 9 -20 0 -213 -237 -242 -298 -22 -46 -27
-52 -37 -38 -11 15 -38 15 -297 6 -157 -6 -499 -10 -760 -8 -434 3 -479 5
-525 22 -27 10 -70 21 -95 25 -37 5 -46 10 -48 29 -4 27 21 29 94 7 143 -44
157 -45 627 -45 249 1 556 6 682 11 127 6 251 11 277 12 26 0 49 5 51 11 7 18
120 166 181 236 38 45 52 68 45 75 -14 13 -110 -94 -220 -248 -7 -9 -59 16
-70 34 -6 11 -31 11 -131 0 -68 -7 -166 -15 -218 -18 l-95 -4 25 20 c14 11 39
21 56 21 17 0 80 7 140 15 125 18 214 21 223 8 3 -4 18 -14 33 -20 21 -10 27
-9 32 3 4 10 -11 22 -50 39 l-55 25 -147 -20 c-179 -24 -165 -24 -152 0 7 13
21 20 39 20 15 0 78 9 141 20 90 17 120 19 149 10 59 -18 80 -32 83 -54 3 -22
-2 -27 128 129 33 41 46 63 39 70 -11 10 -34 -12 -112 -108 l-38 -47 -32 17
c-40 20 -105 22 -223 4 -50 -8 -99 -11 -109 -7 -36 14 8 32 110 46 129 18 205
17 237 -4 23 -15 26 -15 31 -2 13 32 -31 41 -190 38 -84 -2 -153 1 -153 5 1
29 20 33 169 34 122 0 157 -3 176 -15 23 -15 25 -15 48 17 41 55 43 61 18 54
-13 -3 -41 1 -64 9 -23 8 -91 20 -152 25 -114 11 -129 16 -116 37 6 10 19 10
59 2 28 -6 64 -10 79 -8 20 3 7 9 -49 22 -49 11 -78 23 -78 31 0 15 -81 45
-126 47 -16 0 -60 -11 -99 -25 -188 -69 -533 -90 -718 -43 -96 25 -143 44
-186 77 -32 26 -64 24 -99 -6z m483 -167 c154 16 218 9 223 -24 3 -20 8 -20
167 -16 92 3 165 1 165 -4 -1 -29 -20 -36 -91 -33 -41 1 -111 2 -156 1 -72 -2
-83 -4 -83 -19 0 -17 12 -18 147 -15 l148 3 -20 -21 c-20 -20 -35 -21 -379
-28 -326 -6 -359 -6 -372 10 -14 15 -9 17 60 23 42 4 105 5 141 3 54 -3 65 -1
63 10 -2 12 -29 15 -148 15 -140 0 -180 6 -180 28 0 7 46 10 138 9 180 -3 192
-2 192 13 0 9 -44 13 -177 15 -172 3 -192 7 -193 35 0 5 78 6 173 1 94 -4 177
-7 182 -6z m445 -188 c0 -26 -53 -32 -314 -38 -269 -5 -316 -1 -316 28 0 6 88
10 221 10 122 -1 224 2 227 5 10 9 182 5 182 -5z m-1064 -54 c88 -26 239 -46
320 -44 59 2 85 -2 102 -14 21 -14 17 -16 -81 -22 -106 -7 -235 7 -357 39 -30
8 -71 16 -90 17 -24 2 -36 8 -38 21 -3 14 4 17 45 17 27 0 72 -6 99 -14z
m1548 -104 c26 -22 34 -42 17 -42 -6 0 -13 5 -16 10 -8 12 -81 13 -160 1 -86
-13 -532 -24 -520 -13 23 21 170 41 335 47 96 3 195 9 220 13 69 12 96 9 124
-16z"/>
<path d="M3885 5152 c-6 -4 -44 -47 -85 -97 -41 -49 -93 -112 -117 -138 -39
-45 -52 -74 -67 -148 l-6 -26 -157 -8 c-87 -4 -437 -7 -777 -6 -592 1 -625 2
-727 22 -107 22 -139 21 -139 -4 0 -8 15 -14 43 -15 23 -2 78 -10 122 -20 71
-15 154 -17 745 -16 366 0 716 4 778 8 107 9 112 8 112 -11 0 -18 -12 -20
-147 -31 -226 -18 -1336 -15 -1456 4 -51 8 -117 17 -147 21 l-55 6 -48 71
c-47 70 -122 178 -213 305 -31 43 -49 60 -56 53 -11 -11 64 -128 201 -312 47
-63 88 -124 91 -135 5 -17 17 -21 75 -26 39 -3 113 -11 165 -18 62 -8 201 -11
403 -9 236 2 307 0 307 -9 0 -7 -9 -17 -19 -23 -24 -13 -632 -12 -711 0 -110
19 -197 23 -204 11 -12 -19 -26 -12 -26 14 0 16 -30 63 -84 132 -46 60 -109
146 -139 193 -80 120 -92 134 -111 127 -12 -5 5 -35 87 -149 56 -79 134 -185
174 -236 40 -52 73 -101 73 -110 0 -12 3 -13 12 -4 16 16 55 15 158 -3 64 -11
168 -15 418 -15 182 0 332 -4 332 -9 0 -29 -34 -32 -337 -31 -169 0 -337 5
-373 11 -121 19 -179 22 -192 11 -13 -11 -99 92 -250 298 -145 200 -149 203
-163 180 -6 -10 79 -129 165 -230 26 -30 65 -81 87 -113 22 -32 62 -85 89
-117 44 -53 50 -57 71 -47 18 8 51 6 131 -7 82 -13 179 -17 419 -19 172 -1
313 -5 313 -8 0 -3 -9 -14 -20 -24 -19 -17 -39 -18 -307 -11 -180 4 -334 12
-411 23 -106 15 -124 15 -132 3 -5 -8 -8 -15 -7 -17 2 -1 50 -9 107 -18 69
-11 208 -18 403 -22 163 -3 297 -9 297 -13 0 -29 -372 -41 -584 -19 -55 6
-130 14 -165 17 -61 7 -64 8 -65 34 -1 15 -12 35 -26 46 -14 11 -52 57 -84
103 -33 46 -81 107 -106 134 -25 28 -73 86 -107 130 -73 97 -110 132 -122 119
-11 -11 145 -210 230 -294 30 -30 78 -89 106 -130 28 -41 60 -83 71 -94 12
-10 24 -31 27 -47 6 -25 11 -29 43 -29 20 -1 57 -5 82 -11 25 -5 131 -13 236
-17 140 -6 196 -11 208 -21 13 -11 14 -16 5 -22 -19 -12 -287 0 -436 18 -110
14 -133 20 -133 33 0 9 -14 29 -31 46 -16 16 -57 68 -90 116 -33 48 -82 106
-110 130 -27 23 -87 87 -133 142 -103 125 -123 143 -137 129 -7 -7 3 -27 36
-64 88 -101 150 -164 220 -226 39 -33 84 -80 100 -103 17 -22 51 -69 77 -103
41 -55 53 -82 49 -110 0 -5 -41 45 -89 110 -49 65 -111 136 -138 157 -27 22
-106 98 -176 170 -83 84 -131 127 -137 121 -15 -15 118 -161 230 -254 109 -90
165 -150 220 -235 46 -70 50 -96 14 -96 -23 0 -31 11 -68 88 -32 68 -58 104
-116 162 -41 41 -63 62 -50 45 13 -16 28 -33 33 -36 5 -4 5 -12 1 -19 -5 -8
-4 -11 2 -7 6 4 24 -11 42 -33 33 -41 39 -56 19 -44 -9 5 -9 2 1 -9 15 -19 26
-23 15 -5 -5 7 -3 8 5 4 7 -5 10 -15 7 -23 -3 -8 -2 -12 2 -9 5 3 20 -19 35
-48 15 -28 38 -63 53 -77 14 -13 32 -37 40 -54 8 -16 21 -41 29 -55 14 -24 15
-24 15 -3 0 22 1 22 42 7 100 -35 228 -48 478 -49 238 0 245 -1 245 -20 0 -19
-8 -20 -200 -23 -213 -4 -351 8 -477 39 -91 23 -88 23 -88 5 0 -23 116 -54
265 -72 33 -3 158 -6 278 -5 212 2 217 1 217 -19 0 -16 -7 -20 -37 -20 -21 -1
-99 -3 -173 -5 -158 -5 -300 6 -442 35 -55 11 -103 18 -106 16 -2 -3 -2 -12 1
-19 3 -9 48 -23 124 -38 99 -19 158 -23 371 -27 245 -4 252 -4 252 -24 0 -20
-4 -20 -247 -15 -191 4 -274 10 -363 26 -63 12 -121 23 -127 26 -8 2 -13 -4
-13 -15 0 -24 5 -25 185 -52 120 -17 190 -21 353 -20 191 1 202 0 202 -17 0
-23 -28 -26 -237 -25 -124 0 -271 14 -493 47 -8 1 -16 -5 -18 -14 -4 -20 28
-28 168 -39 58 -5 143 -13 190 -18 47 -5 153 -7 235 -3 83 3 416 4 742 2 607
-3 693 1 693 35 0 10 -8 12 -32 6 -18 -4 -188 -7 -378 -7 -325 0 -345 1 -345
18 0 17 22 18 355 22 195 2 365 7 378 10 17 6 22 3 23 -11 0 -11 3 -14 5 -7 3
7 1 20 -4 29 -8 15 -45 16 -391 15 -364 -2 -382 -1 -379 16 3 17 27 18 378 23
319 4 377 3 388 -9 10 -13 12 -13 12 1 0 9 -5 20 -10 23 -6 4 -8 21 -4 41 4
22 2 34 -5 34 -6 0 -11 6 -11 13 0 9 -82 12 -377 12 -352 0 -378 1 -381 18 -3
16 19 17 350 17 194 0 363 3 376 6 13 4 22 14 22 25 0 11 5 19 10 19 6 0 10 7
10 16 0 9 5 12 12 8 6 -4 8 -3 5 3 -3 5 3 16 13 23 18 13 18 15 4 32 -15 16
-13 20 29 62 60 61 147 177 187 253 48 89 215 273 249 273 6 0 11 5 11 10 0 6
-10 10 -23 10 -36 0 -203 -177 -272 -288 -70 -114 -165 -231 -202 -253 -15 -8
-32 -29 -36 -46 -7 -24 -17 -32 -41 -37 -37 -8 -587 -8 -594 -1 -3 3 0 11 7
18 9 9 83 12 284 13 150 1 286 6 302 11 17 5 32 18 34 28 2 15 -1 17 -20 11
-13 -4 -103 -10 -199 -12 -96 -2 -217 -6 -268 -7 -73 -2 -92 0 -88 10 3 7 0
13 -7 14 -7 0 -3 4 8 9 11 5 112 9 225 9 113 1 234 6 270 12 57 9 66 8 77 -7
8 -11 16 -14 22 -8 40 44 169 220 211 288 36 59 84 116 155 185 57 56 102 101
100 101 -13 0 -84 -43 -81 -48 2 -4 -29 -36 -69 -72 -39 -36 -93 -98 -121
-139 -53 -81 -195 -265 -213 -275 -6 -4 -11 0 -11 9 0 13 -6 16 -24 11 -108
-27 -661 -40 -743 -17 -92 25 -41 31 275 32 253 0 337 4 415 17 l97 18 63 80
c35 44 84 111 109 148 25 37 93 116 152 176 68 70 100 110 92 113 -17 7 -229
-207 -276 -278 -19 -27 -60 -83 -92 -124 -34 -43 -56 -81 -53 -89 4 -10 1 -12
-12 -7 -22 9 -66 7 -113 -5 -19 -5 -191 -12 -381 -16 -340 -6 -347 -6 -358 13
-10 20 -5 20 263 28 150 4 292 4 317 0 28 -4 80 1 144 14 54 11 103 17 107 15
13 -8 9 13 -4 23 -9 7 -39 6 -88 -2 -43 -7 -223 -15 -422 -19 -340 -6 -348 -6
-358 14 -6 11 -7 20 -3 21 4 0 161 2 348 5 206 2 368 9 410 16 39 7 76 12 83
11 6 0 12 7 12 16 0 17 113 160 229 291 117 131 143 167 127 173 -17 7 -35
-13 -221 -231 -71 -84 -135 -167 -141 -184 -8 -22 -18 -32 -35 -34 -13 -1 -51
-7 -84 -13 -33 -6 -217 -11 -408 -13 -295 -2 -350 0 -358 13 -5 7 -9 17 -9 21
0 3 177 8 393 11 215 3 408 9 427 14 l35 9 7 73 c4 41 14 84 22 95 13 21 149
187 231 282 24 28 41 54 38 58 -8 8 -16 7 -28 -2z m-1993 -883 c31 -5 154 -12
274 -14 207 -5 244 -10 244 -36 0 -14 -344 -8 -487 9 -113 13 -136 19 -154 38
l-21 22 44 -4 c23 -3 69 -9 100 -15z m3 -65 c97 -21 136 -24 331 -24 208 0
222 -1 239 -20 18 -20 17 -20 -217 -20 -238 0 -324 9 -455 46 -42 12 -53 20
-53 36 0 17 4 19 23 13 12 -4 72 -18 132 -31z m1845 0 c0 -8 -4 -14 -9 -14 -5
0 -11 -9 -14 -19 -4 -16 -18 -20 -98 -26 -104 -7 -587 0 -597 9 -3 4 0 12 7
19 9 9 92 12 334 12 177 0 330 4 340 9 9 4 17 15 17 23 0 8 5 11 10 8 6 -3 10
-13 10 -21z m-2 -184 c-5 -23 -74 -28 -430 -29 -318 -1 -328 0 -328 18 0 13 8
21 23 23 12 2 183 3 380 3 312 0 357 -2 355 -15z m-808 -150 l35 -19 -85 -1
c-47 -1 -151 -4 -232 -6 -84 -2 -148 0 -148 5 0 25 76 38 233 39 143 1 166 -1
197 -18z"/>
<path d="M3909 5073 c-19 -21 -60 -69 -91 -108 -31 -38 -83 -101 -117 -140
-44 -51 -61 -78 -61 -99 l0 -29 22 29 c12 16 49 61 83 99 92 105 214 259 216
270 2 22 -19 13 -52 -22z"/>
<path d="M3949 4883 c-153 -169 -270 -315 -267 -331 6 -29 27 -11 106 94 45
60 113 141 150 179 141 145 153 161 138 174 -10 9 -36 -14 -127 -116z"/>
<path d="M4194 4756 c-28 -24 -93 -104 -145 -177 -52 -74 -131 -173 -176 -221
-46 -48 -83 -93 -83 -99 0 -8 5 -8 18 3 148 125 140 116 429 506 33 45 17 40
-43 -12z"/>
<path d="M750 4651 c0 -11 5 -23 10 -26 8 -5 8 -11 1 -19 -7 -9 -7 -16 2 -25
10 -10 6 -11 -16 -6 -22 6 -26 4 -21 -9 3 -9 10 -14 14 -11 5 3 11 1 15 -5 3
-5 1 -10 -4 -10 -17 0 -13 -18 9 -40 11 -11 25 -41 31 -68 6 -26 18 -67 25
-92 8 -25 16 -56 19 -70 2 -14 8 -36 13 -50 15 -40 55 -241 54 -275 0 -16 5
-33 11 -37 8 -5 6 -8 -5 -8 -10 0 -18 -5 -18 -11 0 -6 9 -8 23 -4 22 6 21 6
-2 -8 -19 -11 -20 -15 -8 -20 13 -5 15 -18 11 -66 -3 -34 -3 -61 -1 -61 2 0
24 7 47 15 24 8 45 13 47 11 2 -2 -26 -14 -64 -26 -83 -27 -93 -35 -68 -54 19
-14 18 -17 -23 -98 -23 -45 -42 -89 -42 -97 0 -8 -3 -12 -6 -8 -4 3 -20 -1
-36 -9 l-30 -16 28 -29 c35 -36 40 -36 52 0 6 17 24 37 41 45 17 9 31 25 33
38 l3 23 14 -25 c18 -31 18 -163 0 -196 -11 -22 -10 -27 13 -51 26 -25 26 -25
74 -9 71 24 74 27 84 92 5 32 15 78 24 102 8 23 15 46 16 50 1 11 61 30 98 31
63 2 138 -43 168 -100 l13 -27 53 15 c69 20 87 36 67 59 -8 9 -28 23 -46 30
-17 8 -58 38 -90 69 -46 43 -55 57 -44 64 10 6 22 4 38 -6 33 -22 41 -8 14 21
-24 26 -68 40 -74 23 -3 -11 -147 82 -147 95 0 12 14 10 28 -4 22 -22 20 -3
-3 26 l-23 29 -42 -17 c-24 -9 -45 -14 -48 -11 -3 3 -1 5 4 5 5 0 15 4 23 9
12 8 8 19 -19 60 -18 29 -30 54 -28 57 3 3 20 -18 38 -46 18 -27 34 -50 36
-50 6 0 -29 75 -48 103 -11 15 -26 27 -34 27 -14 0 -18 12 -15 39 2 7 -2 10
-7 7 -10 -6 -18 10 -63 117 -15 37 -24 67 -19 67 5 0 16 -21 25 -47 15 -46 44
-105 45 -92 1 18 -61 150 -79 168 -11 11 -25 39 -31 63 -7 24 -15 48 -18 53
-4 6 -7 15 -8 20 -1 6 -3 17 -5 25 -2 8 1 14 8 13 10 -2 10 4 2 25 -6 15 -12
53 -14 85 -4 64 -18 89 -42 80 -12 -5 -15 -2 -10 11 5 11 -4 28 -25 51 -35 40
-48 44 -48 16z"/>
<path d="M1720 3792 c0 -15 9 -22 38 -27 31 -6 573 -12 1809 -19 172 -1 183
-2 192 -21 9 -19 10 -19 10 3 1 12 -3 22 -9 22 -5 0 -10 6 -10 13 0 9 -72 12
-322 13 -178 1 -550 2 -828 3 -486 1 -826 12 -862 26 -14 5 -18 2 -18 -13z"/>
<path d="M1716 3703 c-3 -7 10 -14 32 -17 30 -5 1518 -20 1910 -20 78 0 102
-3 102 -13 0 -7 5 -13 10 -13 13 0 13 1 -6 38 -15 31 -31 34 -90 17 -5 -2
-111 2 -235 7 -333 15 -1718 16 -1723 1z"/>
<path d="M2340 3639 c-179 -5 -394 -6 -477 -3 -136 5 -153 4 -153 -10 0 -11
10 -17 33 -18 17 -1 372 -4 787 -6 1354 -7 1240 -5 1240 -24 0 -28 -108 -32
-580 -19 -274 8 -639 10 -950 6 -278 -3 -511 -5 -517 -5 -7 0 -13 -6 -13 -14
0 -25 155 -30 615 -18 316 8 518 9 715 1 346 -13 678 -16 707 -6 27 10 39 57
21 87 -11 18 -19 20 -49 16 -31 -5 -253 -1 -904 18 -82 2 -296 0 -475 -5z"/>
<path d="M2415 3489 c-104 -3 -306 -7 -447 -8 -211 -1 -258 -3 -258 -15 0 -31
183 -34 586 -10 285 17 645 15 1019 -6 105 -6 248 -10 320 -8 114 3 130 5 133
21 3 16 -6 17 -125 11 -71 -3 -283 1 -474 10 -358 17 -434 17 -754 5z"/>
<path d="M2285 3419 c-44 -5 -191 -11 -327 -15 -240 -6 -248 -7 -248 -27 0
-20 4 -20 173 -13 94 4 204 12 242 17 153 20 679 22 1055 4 201 -9 418 -17
483 -17 92 -1 117 -3 117 -14 0 -8 5 -14 10 -14 6 0 10 7 10 15 0 8 -4 15 -10
15 -5 0 -10 6 -10 13 0 11 -55 15 -272 21 -150 4 -336 11 -413 16 -167 11
-697 10 -810 -1z"/>
<path d="M2290 3353 c-41 -2 -158 -10 -258 -18 -101 -8 -217 -15 -258 -15 -62
0 -74 -3 -74 -16 0 -14 12 -16 98 -11 486 27 871 37 1072 27 118 -6 370 -13
560 -16 297 -6 347 -9 358 -22 10 -13 12 -13 12 -1 -1 44 -11 46 -305 53 -154
4 -374 11 -490 16 -196 9 -542 10 -715 3z"/>
<path d="M4910 3289 c-64 -38 -90 -69 -83 -98 3 -14 11 -29 17 -33 6 -4 0 -8
-14 -9 -22 0 -23 -1 -6 -8 19 -7 19 -8 -2 -13 -35 -9 -28 -48 16 -90 33 -32
101 -75 105 -66 1 2 8 14 16 28 84 147 93 170 89 223 -1 28 -10 60 -18 70 -20
23 -77 22 -120 -4z"/>
<path d="M2495 3289 c-702 -34 -797 -41 -803 -57 -5 -16 361 -8 658 15 220 17
309 15 895 -13 185 -9 366 -13 429 -9 85 5 110 4 117 -6 4 -8 11 -11 14 -7 4
3 0 15 -7 27 -12 20 -21 21 -183 21 -93 0 -314 7 -490 15 -439 20 -482 21
-630 14z"/>
<path d="M2450 3214 c-111 -12 -362 -27 -540 -33 -184 -5 -205 -8 -208 -23 -3
-16 8 -18 125 -18 121 0 522 26 793 51 112 10 151 9 365 -12 281 -27 825 -35
825 -13 0 22 -39 26 -159 20 -68 -4 -239 -1 -416 9 -305 16 -722 26 -785 19z"/>
<path d="M2540 3145 c-190 -22 -549 -45 -686 -45 -130 0 -154 -4 -154 -26 0
-25 306 -17 650 17 58 6 166 16 240 23 74 7 143 16 152 20 9 4 23 4 30 0 7 -5
94 -9 193 -10 122 -1 208 -7 265 -19 106 -21 335 -29 460 -17 56 5 100 5 107
0 7 -5 14 -5 18 2 10 16 -26 41 -50 35 -11 -3 -108 -8 -215 -11 -167 -5 -218
-3 -355 16 -205 28 -484 34 -655 15z"/>
<path d="M2856 3069 c16 -17 32 -19 208 -19 105 0 245 -5 311 -10 66 -6 183
-10 260 -10 77 1 150 1 163 1 23 -1 30 14 10 22 -7 2 -87 2 -178 -1 -118 -3
-206 0 -305 11 -77 9 -218 18 -313 21 -171 4 -173 4 -156 -15z"/>
<path d="M2565 3073 c-27 -2 -81 -8 -119 -13 -100 -15 -432 -39 -566 -41 -142
-2 -180 -7 -180 -25 0 -11 24 -14 119 -14 116 0 415 21 576 40 44 5 115 11
159 14 63 3 83 9 100 25 l20 21 -29 -2 c-17 -1 -52 -3 -80 -5z"/>
<path d="M2920 3023 c0 -19 42 -32 105 -33 39 0 135 -7 214 -15 98 -11 168
-13 220 -7 42 4 140 7 219 7 78 -1 142 2 142 7 0 4 -6 8 -12 9 -7 0 -119 2
-248 4 -129 3 -298 9 -375 15 -248 18 -265 19 -265 13z"/>
<path d="M2430 2985 c-230 -30 -425 -45 -593 -45 -134 0 -137 -1 -137 -22 l0
-21 208 6 c114 4 241 11 282 16 41 5 100 12 130 16 l55 6 -61 -29 c-56 -27
-81 -31 -260 -47 -122 -10 -229 -14 -276 -10 -76 6 -78 6 -78 -16 l0 -22 203
6 c111 4 220 9 242 13 l40 6 -30 -25 c-36 -30 -68 -35 -287 -43 -131 -6 -168
-10 -168 -21 0 -14 13 -15 225 -13 l120 1 -22 -22 c-20 -21 -30 -22 -172 -22
-140 0 -151 -1 -151 -19 0 -15 9 -18 58 -19 45 -1 52 -3 32 -10 -18 -6 -7 -8
40 -6 l65 3 1 -36 c1 -29 -15 -56 -96 -165 -53 -71 -116 -158 -141 -191 -74
-103 -297 -385 -357 -452 -77 -86 -78 -89 -50 -119 12 -13 120 -95 238 -180
118 -86 240 -177 271 -203 30 -27 78 -63 105 -81 27 -19 80 -65 119 -104 39
-39 91 -81 118 -93 47 -22 50 -22 75 -5 30 19 55 26 47 12 -3 -4 13 -2 35 6
23 8 44 14 48 12 12 -3 73 56 89 86 19 38 111 80 175 80 26 0 49 -1 51 -4 2
-2 18 -35 36 -73 29 -59 33 -75 28 -125 -3 -31 -8 -67 -12 -81 -5 -20 -5 -22
5 -10 10 12 11 12 5 -5 -12 -31 -23 -108 -18 -121 8 -22 263 -134 463 -204
223 -77 303 -101 395 -119 33 -6 100 -27 149 -46 49 -19 92 -32 96 -30 5 3 16
28 25 55 9 28 20 50 24 50 7 0 11 15 12 53 0 10 5 15 11 11 8 -5 9 -1 5 10 -4
10 12 66 38 136 71 190 167 536 213 765 57 284 64 326 54 338 -5 7 -12 59 -15
117 -4 77 -12 125 -31 181 -33 94 -49 119 -67 102 -24 -24 -74 -14 -154 32
-43 24 -92 47 -109 50 -51 10 -127 36 -189 63 -53 23 -59 24 -75 9 -16 -15
-21 -14 -60 3 -24 11 -57 29 -73 41 -17 12 -32 20 -33 18 -2 -2 -11 -18 -19
-35 -28 -54 -64 -91 -89 -89 -31 2 -33 24 -8 97 17 49 18 63 8 69 -9 6 -20 -5
-35 -38 -13 -25 -31 -52 -42 -59 -10 -7 -26 -32 -35 -54 -11 -28 -26 -45 -50
-56 -27 -14 -35 -24 -40 -55 -7 -42 -32 -53 -56 -24 -7 9 -15 13 -18 10 -12
-11 -42 30 -42 57 0 26 8 33 38 29 6 -1 12 3 12 9 0 5 5 10 11 10 5 0 7 -4 4
-10 -3 -5 1 -10 9 -10 9 0 16 3 16 8 0 4 24 33 54 65 42 46 55 68 59 100 3 23
9 52 12 64 6 18 0 25 -32 41 -21 11 -67 43 -103 72 -35 28 -80 58 -98 65 -18
8 -58 38 -90 68 -31 30 -75 64 -97 76 -51 28 -145 144 -121 149 9 2 16 8 16
13 0 5 -1 8 -2 8 -2 -1 -82 -12 -178 -24z m-355 -1081 c14 -6 14 -9 -3 -28
-11 -11 -66 -91 -124 -176 -133 -199 -141 -209 -155 -210 -20 0 -16 11 23 70
19 30 45 73 56 95 26 51 170 255 179 255 4 0 15 -3 24 -6z m9 -144 c-35 -50
-85 -123 -111 -162 -58 -92 -102 -148 -114 -148 -24 0 -18 33 14 72 18 24 45
61 58 83 13 23 59 91 103 153 68 96 81 110 97 102 16 -9 12 -19 -47 -100z
m114 48 c9 -9 8 -16 -7 -32 -17 -19 -129 -178 -225 -318 -22 -32 -43 -58 -48
-58 -27 0 -13 39 48 127 149 215 205 293 212 293 5 0 13 -5 20 -12z m37 -97
c-35 -47 -125 -176 -203 -291 -49 -72 -54 -77 -70 -57 -10 11 7 41 78 143 151
219 199 277 216 263 12 -10 9 -19 -21 -58z m1045 -423 c79 -30 88 -39 71 -67
-7 -11 -12 -11 -32 2 -40 24 -216 80 -233 74 -31 -12 -15 -24 67 -52 140 -48
167 -62 160 -80 -7 -20 -12 -19 -162 34 -62 23 -117 38 -122 35 -18 -11 -8
-32 19 -38 70 -17 229 -81 242 -97 19 -23 125 -55 210 -64 142 -14 276 -56
265 -83 -3 -7 -5 -18 -5 -23 0 -5 -19 0 -42 12 -22 11 -92 31 -153 44 -116 24
-180 45 -419 134 -76 29 -145 50 -152 47 -33 -13 -10 -33 59 -54 39 -13 106
-36 147 -51 160 -61 219 -80 330 -105 63 -15 134 -36 159 -47 35 -15 46 -17
53 -7 11 16 4 -15 -33 -156 -16 -60 -32 -113 -36 -116 -5 -4 -64 12 -133 36
-69 23 -206 70 -305 103 -211 72 -343 123 -328 128 5 2 50 -11 99 -28 100 -35
330 -105 474 -145 52 -14 116 -36 142 -49 26 -12 50 -20 53 -17 31 32 -60 69
-410 168 -49 14 -114 34 -143 46 -29 11 -95 33 -145 48 -70 21 -91 32 -89 44
1 8 29 71 61 139 58 122 107 192 144 206 32 12 128 1 187 -21z"/>
<path d="M2956 1093 c-18 -18 2 -34 77 -59 113 -37 136 -50 130 -72 -4 -17
-13 -15 -120 21 -95 33 -116 38 -124 26 -5 -8 -9 -16 -8 -19 0 -6 299 -105
376 -125 29 -7 83 -25 120 -39 38 -14 94 -30 125 -36 31 -6 78 -22 105 -35 46
-24 74 -21 58 5 -12 20 -107 59 -158 66 -36 5 -47 10 -43 21 4 8 6 17 6 19 0
13 73 0 125 -22 90 -38 95 -39 95 -16 0 23 -66 55 -152 74 -29 6 -64 20 -77
30 -17 13 -34 17 -52 13 -31 -7 -136 25 -177 53 -15 11 -41 20 -59 20 -17 0
-40 5 -50 10 -38 20 -191 70 -197 65z"/>
<path d="M3035 2937 c30 -22 168 -31 492 -31 222 -1 293 2 293 11 0 20 -60 25
-287 22 -120 -1 -285 1 -368 5 -133 7 -148 6 -130 -7z"/>
<path d="M3139 2859 c26 -22 213 -32 466 -26 101 3 188 1 198 -4 13 -8 17 -6
17 10 0 17 -9 20 -82 25 -46 3 -204 7 -351 8 -250 3 -267 2 -248 -13z"/>
<path d="M3250 2792 c0 -1 19 -11 43 -20 35 -15 80 -18 285 -20 211 -3 242 -1
242 12 0 9 -10 18 -22 21 -24 5 -548 12 -548 7z"/>
<path d="M3435 2711 c55 -28 324 -138 320 -131 -2 4 -18 13 -35 20 -16 7 -27
16 -24 21 3 5 1 9 -4 9 -20 0 -4 43 24 61 l29 19 -71 0 c-39 0 -113 2 -165 5
-66 4 -88 2 -74 -4z"/>
<path d="M4960 2523 c-14 -9 -28 -21 -31 -26 -4 -5 -12 -6 -19 -2 -9 5 -11 4
-6 -3 4 -7 1 -12 -8 -12 -9 0 -16 -4 -16 -10 0 -5 -7 -7 -15 -4 -8 4 -15 2
-15 -4 0 -16 -31 -23 -46 -11 -10 9 -14 9 -14 0 0 -15 -128 -73 -142 -65 -6 4
-8 3 -5 -3 4 -6 -17 -18 -51 -28 -31 -10 -82 -31 -113 -47 -69 -36 -154 -112
-143 -129 4 -7 3 -10 -3 -6 -5 4 -16 -6 -24 -21 -8 -15 -18 -30 -22 -33 -4 -3
-11 -23 -14 -44 -5 -30 -3 -36 7 -30 10 6 12 2 8 -16 -3 -13 -2 -35 2 -49 6
-18 8 -9 9 36 1 80 34 145 111 218 72 69 134 98 265 127 125 27 185 56 261
124 60 55 69 69 24 38z"/>
<path d="M5264 2498 c-3 -5 -9 -6 -14 -3 -5 3 -33 -4 -64 -15 -52 -20 -76 -46
-62 -69 4 -5 0 -16 -8 -23 -11 -12 -12 -21 -2 -50 17 -49 65 -108 88 -108 10
0 40 19 66 43 26 24 61 53 77 66 26 20 30 29 30 72 0 33 -4 49 -12 49 -7 0
-13 9 -13 19 0 15 -9 20 -41 23 -22 2 -43 0 -45 -4z"/>
<path d="M5481 2393 c-3 -41 -147 -155 -226 -178 -51 -15 -52 -16 -53 -55 -2
-35 1 -40 20 -40 88 0 290 209 265 273 -4 8 -6 9 -6 0z"/>
</g>
</svg>
